<svg width="576" height="70" viewBox="0 0 576 70" fill="none" xmlns="http://www.w3.org/2000/svg">
<path d="M571.77 30.0504C573.613 31.2306 574.67 33.2598 574.944 36.1383H568.791C568.705 35.3467 568.482 34.7206 568.122 34.2601C567.446 33.4253 566.294 33.008 564.668 33.008C563.329 33.008 562.372 33.2167 561.797 33.634C561.235 34.0514 560.955 34.5407 560.955 35.102C560.955 35.8072 561.257 36.3182 561.861 36.6348C562.466 36.9658 564.603 37.5343 568.273 38.3403C570.72 38.9159 572.555 39.7867 573.778 40.9524C574.987 42.1326 575.592 43.6078 575.592 45.378C575.592 47.7095 574.721 49.6165 572.979 51.0989C571.252 52.5668 568.575 53.3008 564.949 53.3008C561.25 53.3008 558.515 52.5237 556.745 50.9693C554.989 49.4006 554.111 47.4073 554.111 44.9894H560.35C560.48 46.0832 560.76 46.8604 561.192 47.3209C561.955 48.1413 563.365 48.5515 565.424 48.5515C566.632 48.5515 567.59 48.3716 568.295 48.0117C569.014 47.6519 569.374 47.1122 569.374 46.3926C569.374 45.7018 569.086 45.1765 568.511 44.8167C567.935 44.4569 565.798 43.838 562.099 42.9601C559.436 42.2981 557.558 41.4705 556.464 40.4775C555.371 39.4988 554.824 38.0884 554.824 36.2462C554.824 34.073 555.673 32.2092 557.371 30.6549C559.084 29.0861 561.487 28.3018 564.582 28.3018C567.518 28.3018 569.914 28.8846 571.77 30.0504Z" fill="black"/>
<path d="M551.532 45.5946C551.373 46.9907 550.646 48.4083 549.351 49.8475C547.336 52.1359 544.515 53.28 540.889 53.28C537.895 53.28 535.254 52.3158 532.966 50.3872C530.677 48.4587 529.533 45.3212 529.533 40.9748C529.533 36.9018 530.562 33.7787 532.62 31.6055C534.693 29.4323 537.377 28.3457 540.673 28.3457C542.63 28.3457 544.393 28.7127 545.962 29.4467C547.531 30.1807 548.826 31.3393 549.848 32.9224C550.769 34.3184 551.366 35.9375 551.639 37.7797C551.798 38.8591 551.863 40.4135 551.834 42.4428H535.729C535.815 44.8031 536.557 46.4582 537.953 47.408C538.802 47.9981 539.824 48.2932 541.018 48.2932C542.285 48.2932 543.314 47.9334 544.105 47.2138C544.537 46.8252 544.918 46.2855 545.249 45.5946H551.532ZM545.444 38.3842C545.343 36.7579 544.846 35.5274 543.954 34.6926C543.076 33.8435 541.982 33.4189 540.673 33.4189C539.248 33.4189 538.14 33.8651 537.348 34.7574C536.571 35.6497 536.082 36.8586 535.88 38.3842H545.444Z" fill="black"/>
<path d="M525.851 28.9715V52.5025H519.612V28.9715H525.851ZM525.851 20.4873V26.165H519.612V20.4873H525.851Z" fill="black"/>
<path d="M500.916 56.6259C501.578 57.1872 502.693 57.4678 504.262 57.4678C506.478 57.4678 507.961 56.7266 508.709 55.2442C509.199 54.2944 509.443 52.6968 509.443 50.4517V48.9405C508.853 49.9479 508.22 50.7035 507.543 51.2073C506.32 52.1427 504.73 52.6105 502.772 52.6105C499.75 52.6105 497.332 51.5527 495.519 49.437C493.72 47.307 492.82 44.4286 492.82 40.8018C492.82 37.3045 493.691 34.3685 495.432 31.9938C497.174 29.6047 499.642 28.4102 502.837 28.4102C504.017 28.4102 505.046 28.5901 505.924 28.9499C507.421 29.5687 508.63 30.7057 509.551 32.3608V28.9714H515.531V51.2936C515.531 54.3303 515.02 56.6187 513.998 58.1586C512.242 60.8068 508.875 62.1309 503.895 62.1309C500.887 62.1309 498.433 61.5408 496.533 60.3606C494.634 59.1805 493.583 57.4174 493.382 55.0715H500.074C500.247 55.7911 500.527 56.3093 500.916 56.6259ZM499.88 44.4717C500.714 46.4579 502.211 47.4509 504.37 47.4509C505.809 47.4509 507.025 46.9112 508.018 45.8318C509.011 44.738 509.508 43.0038 509.508 40.6291C509.508 38.3983 509.033 36.7 508.083 35.5342C507.148 34.3685 505.888 33.7856 504.305 33.7856C502.146 33.7856 500.657 34.8003 499.836 36.8295C499.405 37.9089 499.189 39.2402 499.189 40.8233C499.189 42.1906 499.419 43.4067 499.88 44.4717Z" fill="black"/>
<path d="M487.303 31.9506C489.29 34.4404 490.283 37.3836 490.283 40.7801C490.283 44.2342 489.29 47.1918 487.303 49.6529C485.317 52.0995 482.302 53.3229 478.258 53.3229C474.214 53.3229 471.199 52.0995 469.213 49.6529C467.226 47.1918 466.233 44.2342 466.233 40.7801C466.233 37.3836 467.226 34.4404 469.213 31.9506C471.199 29.4607 474.214 28.2158 478.258 28.2158C482.302 28.2158 485.317 29.4607 487.303 31.9506ZM478.236 33.4186C476.437 33.4186 475.049 34.059 474.07 35.3399C473.106 36.6064 472.623 38.4198 472.623 40.7801C472.623 43.1404 473.106 44.961 474.07 46.2419C475.049 47.5228 476.437 48.1633 478.236 48.1633C480.035 48.1633 481.417 47.5228 482.381 46.2419C483.346 44.961 483.828 43.1404 483.828 40.7801C483.828 38.4198 483.346 36.6064 482.381 35.3399C481.417 34.059 480.035 33.4186 478.236 33.4186Z" fill="black"/>
<path d="M456.389 20.6816H462.541V52.5026H456.389V20.6816Z" fill="black"/>
<path d="M449.739 31.9506C451.725 34.4404 452.718 37.3836 452.718 40.7801C452.718 44.2342 451.725 47.1918 449.739 49.6529C447.753 52.0995 444.738 53.3229 440.694 53.3229C436.649 53.3229 433.634 52.0995 431.648 49.6529C429.662 47.1918 428.669 44.2342 428.669 40.7801C428.669 37.3836 429.662 34.4404 431.648 31.9506C433.634 29.4607 436.649 28.2158 440.694 28.2158C444.738 28.2158 447.753 29.4607 449.739 31.9506ZM440.672 33.4186C438.873 33.4186 437.484 34.059 436.505 35.3399C435.541 36.6064 435.059 38.4198 435.059 40.7801C435.059 43.1404 435.541 44.961 436.505 46.2419C437.484 47.5228 438.873 48.1633 440.672 48.1633C442.471 48.1633 443.853 47.5228 444.817 46.2419C445.781 44.961 446.263 43.1404 446.263 40.7801C446.263 38.4198 445.781 36.6064 444.817 35.3399C443.853 34.059 442.471 33.4186 440.672 33.4186Z" fill="black"/>
<path d="M415.489 33.5266C413.402 33.5266 411.97 34.4117 411.193 36.1819C410.79 37.1174 410.588 38.3119 410.588 39.7655V52.5025H404.457V29.0146H410.394V32.4471C411.185 31.2382 411.934 30.3675 412.639 29.835C413.905 28.8851 415.51 28.4102 417.453 28.4102C419.885 28.4102 421.871 29.0506 423.411 30.3315C424.966 31.598 425.743 33.7065 425.743 36.6568V52.5025H419.439V38.1896C419.439 36.9519 419.274 36.002 418.943 35.34C418.338 34.131 417.187 33.5266 415.489 33.5266Z" fill="black"/>
<path d="M399.976 38.6866V52.503H393.694V38.1901C393.694 36.9236 393.478 35.9018 393.046 35.1246C392.485 34.0308 391.42 33.4839 389.851 33.4839C388.225 33.4839 386.987 34.0308 386.138 35.1246C385.303 36.204 384.886 37.7511 384.886 39.766V52.503H378.755V20.79H384.886V32.0375C385.778 30.6702 386.807 29.7203 387.973 29.1878C389.153 28.6409 390.391 28.3675 391.686 28.3675C393.14 28.3675 394.457 28.6193 395.637 29.1231C396.831 29.6268 397.81 30.3968 398.573 31.433C399.22 32.3109 399.616 33.2176 399.76 34.1531C399.904 35.0742 399.976 36.5854 399.976 38.6866Z" fill="black"/>
<path d="M374.458 37.4124H368.154C368.039 36.5345 367.744 35.7429 367.269 35.0377C366.578 34.0878 365.506 33.6129 364.052 33.6129C361.98 33.6129 360.562 34.6419 359.799 36.7C359.396 37.7938 359.195 39.2474 359.195 41.0608C359.195 42.7879 359.396 44.1767 359.799 45.2273C360.533 47.1847 361.915 48.1633 363.944 48.1633C365.384 48.1633 366.405 47.7747 367.01 46.9976C367.614 46.2204 367.981 45.2129 368.111 43.9752H374.393C374.249 45.8462 373.573 47.6164 372.364 49.2859C370.435 51.9772 367.578 53.3229 363.793 53.3229C360.008 53.3229 357.223 52.2003 355.439 49.9551C353.654 47.71 352.762 44.7956 352.762 41.2119C352.762 37.1678 353.748 34.0231 355.719 31.7779C357.691 29.5327 360.411 28.4102 363.88 28.4102C366.83 28.4102 369.241 29.0722 371.112 30.3963C372.997 31.7203 374.112 34.0591 374.458 37.4124Z" fill="black"/>
<path d="M349.632 45.5946C349.474 46.9907 348.747 48.4083 347.452 49.8475C345.437 52.1359 342.616 53.28 338.989 53.28C335.996 53.28 333.355 52.3158 331.066 50.3872C328.778 48.4587 327.634 45.3212 327.634 40.9748C327.634 36.9018 328.663 33.7787 330.721 31.6055C332.793 29.4323 335.477 28.3457 338.773 28.3457C340.731 28.3457 342.494 28.7127 344.062 29.4467C345.631 30.1807 346.926 31.3393 347.948 32.9224C348.869 34.3184 349.467 35.9375 349.74 37.7797C349.898 38.8591 349.963 40.4135 349.934 42.4428H333.83C333.916 44.8031 334.657 46.4582 336.053 47.408C336.902 47.9981 337.924 48.2932 339.119 48.2932C340.385 48.2932 341.414 47.9334 342.206 47.2138C342.638 46.8252 343.019 46.2855 343.35 45.5946H349.632ZM343.544 38.3842C343.444 36.7579 342.947 35.5274 342.055 34.6926C341.177 33.8435 340.083 33.4189 338.773 33.4189C337.348 33.4189 336.24 33.8651 335.449 34.7574C334.672 35.6497 334.182 36.8586 333.981 38.3842H343.544Z" fill="black"/>
<path d="M330.245 20.6816V26.3162H320.725V52.5026H314.032V26.3162H304.469V20.6816H330.245Z" fill="black"/>
<path d="M290.478 20.7246V52.5024H284.498V49.2426C283.621 50.6386 282.62 51.6532 281.498 52.2865C280.375 52.9198 278.979 53.2364 277.31 53.2364C274.561 53.2364 272.244 52.1282 270.358 49.9118C268.487 47.681 267.552 44.8242 267.552 41.3413C267.552 37.3259 268.473 34.1668 270.315 31.8641C272.172 29.5614 274.647 28.41 277.741 28.41C279.166 28.41 280.433 28.7266 281.541 29.3599C282.649 29.9787 283.549 30.8423 284.239 31.9505V20.7246H290.478ZM273.899 40.888C273.899 43.0612 274.33 44.7954 275.194 46.0907C276.043 47.4004 277.338 48.0552 279.08 48.0552C280.821 48.0552 282.145 47.4076 283.052 46.1123C283.959 44.817 284.412 43.1403 284.412 41.0822C284.412 38.2038 283.685 36.1458 282.232 34.908C281.339 34.1596 280.303 33.7854 279.123 33.7854C277.324 33.7854 276 34.4691 275.151 35.8363C274.316 37.1892 273.899 38.8731 273.899 40.888Z" fill="black"/>
<path d="M265.478 45.5946C265.32 46.9907 264.593 48.4083 263.297 49.8475C261.283 52.1359 258.462 53.28 254.835 53.28C251.841 53.28 249.2 52.3158 246.912 50.3872C244.624 48.4587 243.479 45.3212 243.479 40.9748C243.479 36.9018 244.509 33.7787 246.567 31.6055C248.639 29.4323 251.323 28.3457 254.619 28.3457C256.576 28.3457 258.339 28.7127 259.908 29.4467C261.477 30.1807 262.772 31.3393 263.794 32.9224C264.715 34.3184 265.312 35.9375 265.586 37.7797C265.744 38.8591 265.809 40.4135 265.78 42.4428H249.675C249.762 44.8031 250.503 46.4582 251.899 47.408C252.748 47.9981 253.77 48.2932 254.964 48.2932C256.231 48.2932 257.26 47.9334 258.052 47.2138C258.483 46.8252 258.865 46.2855 259.196 45.5946H265.478ZM259.39 38.3842C259.289 36.7579 258.793 35.5274 257.9 34.6926C257.022 33.8435 255.929 33.4189 254.619 33.4189C253.194 33.4189 252.086 33.8651 251.294 34.7574C250.517 35.6497 250.028 36.8586 249.826 38.3842H259.39Z" fill="black"/>
<path d="M242.27 48.1196V52.7179L239.356 52.8259C236.449 52.9266 234.463 52.4229 233.398 51.3147C232.707 50.6095 232.361 49.5229 232.361 48.0549V33.5692H229.08V29.1868H232.361V22.624H238.449V29.1868H242.27V33.5692H238.449V46.004C238.449 46.9683 238.572 47.5727 238.816 47.8174C239.061 48.0477 239.809 48.1628 241.062 48.1628C241.249 48.1628 241.443 48.1628 241.644 48.1628C241.86 48.1484 242.069 48.134 242.27 48.1196Z" fill="black"/>
<path d="M208.656 31.5189C210.283 29.4464 213.075 28.4102 217.033 28.4102C219.609 28.4102 221.897 28.9211 223.898 29.9429C225.898 30.9648 226.898 32.8933 226.898 35.7285V46.5226C226.898 47.271 226.913 48.1777 226.942 49.2427C226.985 50.0487 227.107 50.5956 227.309 50.8834C227.51 51.1713 227.812 51.4087 228.215 51.5958V52.5025H221.523C221.336 52.0276 221.206 51.5814 221.134 51.1641C221.062 50.7467 221.005 50.2718 220.962 49.7393C220.113 50.6604 219.134 51.4447 218.026 52.0924C216.702 52.8551 215.205 53.2365 213.535 53.2365C211.405 53.2365 209.642 52.6321 208.246 51.4231C206.865 50.1998 206.174 48.4728 206.174 46.242C206.174 43.3492 207.289 41.2551 209.52 39.9598C210.743 39.2546 212.542 38.7509 214.917 38.4487L217.011 38.1896C218.148 38.0457 218.961 37.8658 219.451 37.6499C220.328 37.2757 220.767 36.6928 220.767 35.9012C220.767 34.937 220.429 34.2749 219.753 33.9151C219.091 33.5409 218.112 33.3538 216.817 33.3538C215.363 33.3538 214.334 33.7136 213.73 34.4333C213.298 34.9658 213.01 35.6854 212.866 36.5921H206.929C207.059 34.534 207.635 32.8429 208.656 31.5189ZM213.233 48.0554C213.809 48.5303 214.514 48.7678 215.349 48.7678C216.673 48.7678 217.889 48.3792 218.997 47.602C220.12 46.8249 220.703 45.4072 220.746 43.3492V41.0608C220.357 41.3055 219.961 41.507 219.558 41.6653C219.17 41.8092 218.63 41.9459 217.939 42.0755L216.558 42.3345C215.262 42.5648 214.334 42.8454 213.773 43.1765C212.823 43.7377 212.348 44.6085 212.348 45.7886C212.348 46.8392 212.643 47.5948 213.233 48.0554Z" fill="black"/>
<path d="M193.144 33.5266C191.057 33.5266 189.625 34.4117 188.848 36.1819C188.445 37.1174 188.243 38.3119 188.243 39.7655V52.5025H182.112V29.0146H188.049V32.4471C188.841 31.2382 189.589 30.3675 190.294 29.835C191.561 28.8851 193.165 28.4102 195.108 28.4102C197.541 28.4102 199.527 29.0506 201.067 30.3315C202.621 31.598 203.398 33.7065 203.398 36.6568V52.5025H197.094V38.1896C197.094 36.9519 196.929 36.002 196.598 35.34C195.993 34.131 194.842 33.5266 193.144 33.5266Z" fill="black"/>
<path d="M163.016 56.6259C163.678 57.1872 164.794 57.4678 166.363 57.4678C168.579 57.4678 170.061 56.7266 170.81 55.2442C171.299 54.2944 171.544 52.6968 171.544 50.4517V48.9405C170.954 49.9479 170.32 50.7035 169.644 51.2073C168.421 52.1427 166.83 52.6105 164.873 52.6105C161.851 52.6105 159.433 51.5527 157.619 49.437C155.82 47.307 154.921 44.4286 154.921 40.8018C154.921 37.3045 155.792 34.3685 157.533 31.9938C159.275 29.6047 161.743 28.4102 164.938 28.4102C166.118 28.4102 167.147 28.5901 168.025 28.9499C169.522 29.5687 170.731 30.7057 171.652 32.3608V28.9714H177.632V51.2936C177.632 54.3303 177.121 56.6187 176.099 58.1586C174.343 60.8068 170.975 62.1309 165.996 62.1309C162.988 62.1309 160.534 61.5408 158.634 60.3606C156.734 59.1805 155.684 57.4174 155.482 55.0715H162.175C162.347 55.7911 162.628 56.3093 163.016 56.6259ZM161.98 44.4717C162.815 46.4579 164.312 47.4509 166.471 47.4509C167.91 47.4509 169.126 46.9112 170.119 45.8318C171.112 44.738 171.609 43.0038 171.609 40.6291C171.609 38.3983 171.134 36.7 170.184 35.5342C169.248 34.3685 167.989 33.7856 166.406 33.7856C164.247 33.7856 162.757 34.8003 161.937 36.8295C161.505 37.9089 161.289 39.2402 161.289 40.8233C161.289 42.1906 161.52 43.4067 161.98 44.4717Z" fill="black"/>
<path d="M151.272 28.9715V52.5025H145.033V28.9715H151.272ZM151.272 20.4873V26.165H145.033V20.4873H151.272Z" fill="black"/>
<path d="M137.433 30.0504C139.275 31.2306 140.333 33.2598 140.606 36.1383H134.453C134.367 35.3467 134.144 34.7206 133.784 34.2601C133.108 33.4253 131.956 33.008 130.33 33.008C128.992 33.008 128.035 33.2167 127.459 33.634C126.898 34.0514 126.617 34.5407 126.617 35.102C126.617 35.8072 126.919 36.3182 127.524 36.6348C128.128 36.9658 130.265 37.5343 133.935 38.3403C136.382 38.9159 138.217 39.7867 139.44 40.9524C140.649 42.1326 141.254 43.6078 141.254 45.378C141.254 47.7095 140.383 49.6165 138.641 51.0989C136.914 52.5668 134.238 53.3008 130.611 53.3008C126.912 53.3008 124.177 52.5237 122.407 50.9693C120.651 49.4006 119.773 47.4073 119.773 44.9894H126.012C126.142 46.0832 126.423 46.8604 126.854 47.3209C127.617 48.1413 129.028 48.5515 131.086 48.5515C132.295 48.5515 133.252 48.3716 133.957 48.0117C134.676 47.6519 135.036 47.1122 135.036 46.3926C135.036 45.7018 134.748 45.1765 134.173 44.8167C133.597 44.4569 131.46 43.838 127.761 42.9601C125.099 42.2981 123.22 41.4705 122.127 40.4775C121.033 39.4988 120.486 38.0884 120.486 36.2462C120.486 34.073 121.335 32.2092 123.033 30.6549C124.746 29.0861 127.149 28.3018 130.244 28.3018C133.18 28.3018 135.576 28.8846 137.433 30.0504Z" fill="black"/>
<path d="M117.635 45.5946C117.477 46.9907 116.75 48.4083 115.455 49.8475C113.44 52.1359 110.619 53.28 106.992 53.28C103.999 53.28 101.358 52.3158 99.0692 50.3872C96.7809 48.4587 95.6367 45.3212 95.6367 40.9748C95.6367 36.9018 96.6658 33.7787 98.7238 31.6055C100.796 29.4323 103.48 28.3457 106.776 28.3457C108.734 28.3457 110.497 28.7127 112.065 29.4467C113.634 30.1807 114.929 31.3393 115.951 32.9224C116.872 34.3184 117.47 35.9375 117.743 37.7797C117.901 38.8591 117.966 40.4135 117.937 42.4428H101.833C101.919 44.8031 102.66 46.4582 104.056 47.408C104.905 47.9981 105.927 48.2932 107.122 48.2932C108.388 48.2932 109.417 47.9334 110.209 47.2138C110.64 46.8252 111.022 46.2855 111.353 45.5946H117.635ZM111.547 38.3842C111.446 36.7579 110.95 35.5274 110.058 34.6926C109.18 33.8435 108.086 33.4189 106.776 33.4189C105.351 33.4189 104.243 33.8651 103.452 34.7574C102.674 35.6497 102.185 36.8586 101.984 38.3842H111.547Z" fill="black"/>
<path d="M80.6323 52.5026H66.9238V20.6816H80.6323C82.604 20.7104 84.2447 20.9407 85.5544 21.3725C87.7852 22.1065 89.5914 23.4521 90.973 25.4094C92.0812 26.9926 92.8368 28.7052 93.2398 30.5474C93.6428 32.3896 93.8443 34.1455 93.8443 35.8149C93.8443 40.0462 92.9951 43.6299 91.2969 46.5658C88.9941 50.5237 85.4393 52.5026 80.6323 52.5026ZM85.576 28.7988C84.5542 27.0717 82.5321 26.2082 79.5097 26.2082H73.3787V46.976H79.5097C82.6472 46.976 84.8348 45.4289 86.0725 42.3346C86.749 40.6363 87.0872 38.6142 87.0872 36.2683C87.0872 33.0301 86.5834 30.5402 85.576 28.7988Z" fill="black"/>
<path fill-rule="evenodd" clip-rule="evenodd" d="M20.7256 69.0821C19.9261 69.0821 19.1331 69.055 18.3472 69.0015C17.3368 68.9328 16.5801 68.0736 16.5801 67.0609V43.4494C16.5801 42.3448 17.4755 41.4494 18.5801 41.4494H20.1065C21.2111 41.4494 22.1065 40.554 22.1065 39.4494L22.1065 29.633C22.1065 28.5284 21.2111 27.633 20.1065 27.633H18.5801C17.4755 27.633 16.5801 26.7375 16.5801 25.633V2.02125C16.5801 1.00855 17.3368 0.149316 18.3472 0.080604C19.1331 0.0271588 19.9261 0 20.7256 0C39.8021 0 55.2666 15.4646 55.2666 34.5411C55.2666 53.6176 39.8021 69.0821 20.7256 69.0821Z" fill="black"/>
<path fill-rule="evenodd" clip-rule="evenodd" d="M1 0C0.447715 0 0 0.447715 0 1V27.6329V41.4493V68.0821C0 68.6344 0.447716 69.0821 1 69.0821H9.05314C10.1577 69.0821 11.0531 68.1867 11.0531 67.0821V43.4493C11.0531 42.3448 11.9486 41.4493 13.0531 41.4493H14.5797C15.6843 41.4493 16.5797 40.5539 16.5797 39.4493V29.6329C16.5797 28.5284 15.6843 27.6329 14.5797 27.6329H13.0531C11.9486 27.6329 11.0531 26.7375 11.0531 25.6329V2C11.0531 0.895431 10.1577 0 9.05314 0H1Z" fill="black"/>
</svg>
